<?xml version="1.0" encoding="UTF-8"?>
<svg width="217px" height="53px" viewBox="0 0 217 53" version="1.1" xmlns="http://www.w3.org/2000/svg" xmlns:xlink="http://www.w3.org/1999/xlink">
    <title>BTN_Sign in</title>
    <g id="Page-1" stroke="none" stroke-width="1" fill="none" fill-rule="evenodd">
        <g id="01.01.Login" transform="translate(-245.000000, -593.000000)">
            <g id="Group-2" transform="translate(220.000000, 275.000000)">
                <g id="BTN_Sign-in" transform="translate(26.000000, 319.000000)">
                    <rect id="BG" stroke="#EC6602" fill="#FFFFFF" x="0" y="0" width="215" height="51" rx="7.5"></rect>
                    <g id="ic_Microsoft" transform="translate(11.167000, 17.167000)" fill-rule="nonzero">
                        <rect id="Rectangle-Copy-4" fill="#F25022" x="0" y="0" width="7.91667" height="7.91667"></rect>
                        <rect id="Rectangle-Copy-5" fill="#80BA01" x="8.75" y="0" width="7.91667" height="7.91667"></rect>
                        <rect id="Rectangle-Copy-6" fill="#FFB902" x="8.75" y="8.75" width="7.91667" height="7.91667"></rect>
                        <rect id="Rectangle-Copy-7" fill="#02A4EF" x="0" y="8.75" width="7.91667" height="7.91667"></rect>
                    </g>
                    <path d="M43.640625,30.1796875 C44.8125,30.1796875 45.7369792,29.9166667 46.4140625,29.390625 C47.1692708,28.8020833 47.546875,27.9583333 47.546875,26.859375 C47.546875,25.9010417 47.2395833,25.1692708 46.625,24.6640625 C46.390625,24.4661458 46.1145833,24.2838542 45.796875,24.1171875 C45.4791667,23.9505208 44.984375,23.7291667 44.3125,23.453125 C43.5208333,23.125 42.9908854,22.84375 42.7226562,22.609375 C42.4544271,22.375 42.3203125,22.0755208 42.3203125,21.7109375 C42.3203125,21.2890625 42.484375,20.9479167 42.8125,20.6875 C43.125,20.4375 43.546875,20.3125 44.078125,20.3125 C44.8072917,20.3125 45.6848958,20.5260417 46.7109375,20.953125 L46.7109375,20.953125 L47.09375,19.3046875 C45.9427083,18.9348958 44.9088542,18.75 43.9921875,18.75 C42.9088542,18.75 42.0494792,19.0052083 41.4140625,19.515625 C40.6692708,20.109375 40.296875,20.9401042 40.296875,22.0078125 C40.296875,22.8723958 40.6015625,23.546875 41.2109375,24.03125 C41.4401042,24.2083333 41.6927083,24.3684896 41.96875,24.5117188 C42.2447917,24.6549479 42.7109375,24.8671875 43.3671875,25.1484375 C44.2838542,25.5338542 44.8697917,25.8385417 45.125,26.0625 C45.3802083,26.2864583 45.5078125,26.6015625 45.5078125,27.0078125 C45.5078125,27.4661458 45.3541667,27.8411458 45.046875,28.1328125 C44.7135417,28.4557292 44.2291667,28.6171875 43.59375,28.6171875 C42.78125,28.6171875 41.7864583,28.3854167 40.609375,27.921875 L40.609375,27.921875 L40.3359375,29.609375 C41.4505208,29.9895833 42.5520833,30.1796875 43.640625,30.1796875 Z M50.5703125,20.3671875 C50.9036458,20.3671875 51.1783854,20.2565104 51.3945312,20.0351562 C51.6106771,19.8138021 51.71875,19.5338542 51.71875,19.1953125 C51.71875,18.8515625 51.6106771,18.5703125 51.3945312,18.3515625 C51.1783854,18.1328125 50.9010417,18.0234375 50.5625,18.0234375 C50.2291667,18.0234375 49.953125,18.1328125 49.734375,18.3515625 C49.515625,18.5703125 49.40625,18.8463542 49.40625,19.1796875 C49.40625,19.5286458 49.5143229,19.8138021 49.7304688,20.0351562 C49.9466146,20.2565104 50.2265625,20.3671875 50.5703125,20.3671875 Z M51.4921875,30 L51.4921875,21.84375 L49.625,21.84375 L49.625,30 L51.4921875,30 Z M57.015625,33.625 C58.5729167,33.625 59.6901042,33.1953125 60.3671875,32.3359375 C60.6432292,31.9817708 60.8294271,31.5820312 60.9257812,31.1367188 C61.0221354,30.6914062 61.0703125,30.0026042 61.0703125,29.0703125 L61.0703125,29.0703125 L61.0703125,25.0546875 C61.0703125,24.3984375 61.0911458,23.5130208 61.1328125,22.3984375 L61.1328125,22.3984375 L61.15625,21.84375 L59.359375,21.84375 L59.3046875,22.9765625 C58.6953125,22.1067708 57.8567708,21.671875 56.7890625,21.671875 C55.7942708,21.671875 55.0026042,22.0442708 54.4140625,22.7890625 C53.8098958,23.5598958 53.5078125,24.5546875 53.5078125,25.7734375 C53.5078125,27.0078125 53.7994792,27.9791667 54.3828125,28.6875 C54.9973958,29.4375 55.796875,29.8125 56.78125,29.8125 C57.7083333,29.8125 58.515625,29.4140625 59.203125,28.6171875 L59.203125,28.6171875 L59.203125,29.203125 C59.203125,30.1354167 59.1067708,30.7916667 58.9140625,31.171875 C58.5598958,31.859375 57.8802083,32.203125 56.875,32.203125 C56.0364583,32.203125 55.2265625,31.96875 54.4453125,31.5 L54.4453125,31.5 L53.8515625,32.8984375 C54.8203125,33.3828125 55.875,33.625 57.015625,33.625 Z M57.2734375,28.375 C56.6640625,28.375 56.1979167,28.1067708 55.875,27.5703125 C55.5885417,27.1015625 55.4453125,26.5078125 55.4453125,25.7890625 C55.4453125,25.0598958 55.5807292,24.4505208 55.8515625,23.9609375 C56.1640625,23.3932292 56.6223958,23.109375 57.2265625,23.109375 C57.7369792,23.109375 58.203125,23.3177083 58.625,23.734375 C58.8541667,23.9583333 59.046875,24.2473958 59.203125,24.6015625 L59.203125,24.6015625 L59.203125,26.984375 C58.9791667,27.421875 58.6966146,27.7630208 58.3554688,28.0078125 C58.0143229,28.2526042 57.6536458,28.375 57.2734375,28.375 Z M65.609375,30 L65.609375,24.484375 C66.2864583,23.5625 67.0052083,23.1015625 67.765625,23.1015625 C68.359375,23.1015625 68.75,23.3359375 68.9375,23.8046875 C69.0416667,24.0755208 69.09375,24.5364583 69.09375,25.1875 L69.09375,25.1875 L69.09375,30 L70.9609375,30 L70.9609375,25.09375 C70.9609375,24.015625 70.8411458,23.2552083 70.6015625,22.8125 C70.1953125,22.046875 69.4557292,21.6640625 68.3828125,21.6640625 C67.8098958,21.6640625 67.3059896,21.7682292 66.8710938,21.9765625 C66.4361979,22.1848958 65.9765625,22.5416667 65.4921875,23.046875 L65.4921875,23.046875 L65.4296875,21.84375 L63.671875,21.84375 L63.6953125,22.3671875 C63.7265625,23.1119792 63.7421875,23.890625 63.7421875,24.703125 L63.7421875,24.703125 L63.7421875,30 L65.609375,30 Z M78.4765625,20.3671875 C78.8098958,20.3671875 79.0846354,20.2565104 79.3007812,20.0351562 C79.5169271,19.8138021 79.625,19.5338542 79.625,19.1953125 C79.625,18.8515625 79.5169271,18.5703125 79.3007812,18.3515625 C79.0846354,18.1328125 78.8072917,18.0234375 78.46875,18.0234375 C78.1354167,18.0234375 77.859375,18.1328125 77.640625,18.3515625 C77.421875,18.5703125 77.3125,18.8463542 77.3125,19.1796875 C77.3125,19.5286458 77.4205729,19.8138021 77.6367188,20.0351562 C77.8528646,20.2565104 78.1328125,20.3671875 78.4765625,20.3671875 Z M79.3984375,30 L79.3984375,21.84375 L77.53125,21.84375 L77.53125,30 L79.3984375,30 Z M83.8984375,30 L83.8984375,24.484375 C84.5755208,23.5625 85.2942708,23.1015625 86.0546875,23.1015625 C86.6484375,23.1015625 87.0390625,23.3359375 87.2265625,23.8046875 C87.3307292,24.0755208 87.3828125,24.5364583 87.3828125,25.1875 L87.3828125,25.1875 L87.3828125,30 L89.25,30 L89.25,25.09375 C89.25,24.015625 89.1302083,23.2552083 88.890625,22.8125 C88.484375,22.046875 87.7447917,21.6640625 86.671875,21.6640625 C86.0989583,21.6640625 85.5950521,21.7682292 85.1601562,21.9765625 C84.7252604,22.1848958 84.265625,22.5416667 83.78125,23.046875 L83.78125,23.046875 L83.71875,21.84375 L81.9609375,21.84375 L81.984375,22.3671875 C82.015625,23.1119792 82.03125,23.890625 82.03125,24.703125 L82.03125,24.703125 L82.03125,30 L83.8984375,30 Z M99.25,30 L100.40625,26.109375 C100.661458,25.2552083 100.885417,24.4322917 101.078125,23.640625 C101.307292,24.5208333 101.536458,25.3307292 101.765625,26.0703125 L101.765625,26.0703125 L103,30 L104.984375,30 L107.390625,21.84375 L105.6875,21.84375 L104.578125,25.734375 C104.411458,26.3229167 104.247396,26.96875 104.085938,27.671875 L104.085938,27.671875 L103.992188,28.0625 C103.742188,27.09375 103.523438,26.3020833 103.335938,25.6875 L103.335938,25.6875 L102.140625,21.84375 L100.132812,21.84375 L98.9921875,25.71875 C98.7994792,26.3697917 98.5963542,27.1510417 98.3828125,28.0625 C98.1953125,27.1979167 98.0104167,26.4348958 97.828125,25.7734375 L97.828125,25.7734375 L96.75,21.84375 L94.890625,21.84375 L97.2421875,30 L99.25,30 Z M110.023438,20.3671875 C110.356771,20.3671875 110.63151,20.2565104 110.847656,20.0351562 C111.063802,19.8138021 111.171875,19.5338542 111.171875,19.1953125 C111.171875,18.8515625 111.063802,18.5703125 110.847656,18.3515625 C110.63151,18.1328125 110.354167,18.0234375 110.015625,18.0234375 C109.682292,18.0234375 109.40625,18.1328125 109.1875,18.3515625 C108.96875,18.5703125 108.859375,18.8463542 108.859375,19.1796875 C108.859375,19.5286458 108.967448,19.8138021 109.183594,20.0351562 C109.39974,20.2565104 109.679688,20.3671875 110.023438,20.3671875 Z M110.945312,30 L110.945312,21.84375 L109.078125,21.84375 L109.078125,30 L110.945312,30 Z M116.351562,30.1796875 C116.888021,30.1796875 117.442708,30.0885417 118.015625,29.90625 L118.015625,29.90625 L117.851562,28.4765625 C117.492188,28.6119792 117.197917,28.6796875 116.96875,28.6796875 C116.510417,28.6796875 116.200521,28.5208333 116.039062,28.203125 C115.929688,27.9895833 115.875,27.6067708 115.875,27.0546875 L115.875,27.0546875 L115.875,23.265625 L117.734375,23.265625 L117.734375,21.84375 L115.875,21.84375 L115.875,19.7109375 L114.007812,20.0703125 L114.007812,21.84375 L112.695312,21.84375 L112.695312,23.265625 L114.007812,23.265625 L114.007812,27.15625 C114.007812,28.2083333 114.140625,28.9348958 114.40625,29.3359375 C114.78125,29.8984375 115.429688,30.1796875 116.351562,30.1796875 Z M121.414062,30 L121.414062,24.484375 C122.091146,23.5677083 122.809896,23.109375 123.570312,23.109375 C124.164062,23.109375 124.554688,23.34375 124.742188,23.8125 C124.846354,24.078125 124.898438,24.5390625 124.898438,25.1953125 L124.898438,25.1953125 L124.898438,30 L126.765625,30 L126.765625,25.09375 C126.765625,24.0208333 126.645833,23.2630208 126.40625,22.8203125 C126,22.0546875 125.260417,21.671875 124.1875,21.671875 C123.151042,21.671875 122.223958,22.09375 121.40625,22.9375 L121.40625,22.9375 L121.40625,18.3046875 L119.539062,18.3046875 L119.539062,30 L121.414062,30 Z M135.203125,30 L135.203125,20.921875 C135.484375,21.8802083 135.757812,22.734375 136.023438,23.484375 L136.023438,23.484375 L138.3125,30 L140.15625,30 L142.453125,23.34375 C142.739583,22.5104167 142.992188,21.703125 143.210938,20.921875 L143.210938,20.921875 L143.210938,30 L145.101562,30 L145.101562,18.9296875 L142.328125,18.9296875 L139.882812,25.953125 C139.731771,26.3802083 139.533854,27.0260417 139.289062,27.890625 C139.023438,26.9739583 138.822917,26.328125 138.6875,25.953125 L138.6875,25.953125 L136.21875,18.9296875 L133.398438,18.9296875 L133.398438,30 L135.203125,30 Z M148.726562,20.3671875 C149.059896,20.3671875 149.334635,20.2565104 149.550781,20.0351562 C149.766927,19.8138021 149.875,19.5338542 149.875,19.1953125 C149.875,18.8515625 149.766927,18.5703125 149.550781,18.3515625 C149.334635,18.1328125 149.057292,18.0234375 148.71875,18.0234375 C148.385417,18.0234375 148.109375,18.1328125 147.890625,18.3515625 C147.671875,18.5703125 147.5625,18.8463542 147.5625,19.1796875 C147.5625,19.5286458 147.670573,19.8138021 147.886719,20.0351562 C148.102865,20.2565104 148.382812,20.3671875 148.726562,20.3671875 Z M149.648438,30 L149.648438,21.84375 L147.78125,21.84375 L147.78125,30 L149.648438,30 Z M155.703125,30.1796875 C156.71875,30.1796875 157.601562,29.9453125 158.351562,29.4765625 L158.351562,29.4765625 L157.75,28.109375 C157.145833,28.53125 156.523438,28.7421875 155.882812,28.7421875 C155.158854,28.7421875 154.598958,28.4973958 154.203125,28.0078125 C153.802083,27.4973958 153.601562,26.7994792 153.601562,25.9140625 C153.601562,25.0598958 153.773438,24.3776042 154.117188,23.8671875 C154.466146,23.3411458 155.005208,23.078125 155.734375,23.078125 C156.354167,23.078125 156.981771,23.2786458 157.617188,23.6796875 L157.617188,23.6796875 L158.179688,22.28125 C157.325521,21.8697917 156.442708,21.6640625 155.53125,21.6640625 C154.354167,21.6640625 153.434896,22.0130208 152.773438,22.7109375 C152.033854,23.4921875 151.664062,24.5729167 151.664062,25.953125 C151.664062,27.2447917 152.013021,28.2682292 152.710938,29.0234375 C153.429688,29.7942708 154.427083,30.1796875 155.703125,30.1796875 Z M161.851562,30 L161.851562,25.2578125 C162.028646,24.6588542 162.292969,24.1966146 162.644531,23.8710938 C162.996094,23.5455729 163.40625,23.3828125 163.875,23.3828125 C164.052083,23.3828125 164.260417,23.4088542 164.5,23.4609375 L164.5,23.4609375 L164.609375,21.8046875 C164.359375,21.7421875 164.122396,21.7109375 163.898438,21.7109375 C162.945312,21.7109375 162.226562,22.265625 161.742188,23.375 L161.742188,23.375 L161.679688,21.84375 L159.921875,21.84375 C159.96875,22.8645833 159.992188,23.8880208 159.992188,24.9140625 L159.992188,24.9140625 L159.992188,30 L161.851562,30 Z M169.46875,30.1796875 C170.682292,30.1796875 171.638021,29.8177083 172.335938,29.09375 C173.091146,28.3177083 173.46875,27.2604167 173.46875,25.921875 C173.46875,24.6979167 173.148438,23.7057292 172.507812,22.9453125 C171.794271,22.0963542 170.783854,21.671875 169.476562,21.671875 C168.268229,21.671875 167.3125,22.03125 166.609375,22.75 C165.854167,23.5260417 165.476562,24.5677083 165.476562,25.875 C165.476562,27.1354167 165.796875,28.1458333 166.4375,28.90625 C167.151042,29.7552083 168.161458,30.1796875 169.46875,30.1796875 Z M169.46875,28.7578125 C168.828125,28.7578125 168.325521,28.5052083 167.960938,28 C167.596354,27.4947917 167.414062,26.7942708 167.414062,25.8984375 C167.414062,25.2161458 167.536458,24.6380208 167.78125,24.1640625 C168.145833,23.4505208 168.708333,23.09375 169.46875,23.09375 C170.109375,23.09375 170.613281,23.3450521 170.980469,23.8476562 C171.347656,24.3502604 171.53125,25.0416667 171.53125,25.921875 C171.53125,26.8072917 171.348958,27.5013021 170.984375,28.0039062 C170.619792,28.5065104 170.114583,28.7578125 169.46875,28.7578125 Z M177.578125,30.1796875 C178.572917,30.1796875 179.354167,29.9296875 179.921875,29.4296875 C180.473958,28.9453125 180.75,28.3229167 180.75,27.5625 C180.75,26.9947917 180.585938,26.5390625 180.257812,26.1953125 C179.929688,25.8567708 179.348958,25.53125 178.515625,25.21875 C177.833333,24.9635417 177.40625,24.7890625 177.234375,24.6953125 C176.9375,24.5286458 176.789062,24.2942708 176.789062,23.9921875 C176.789062,23.7057292 176.901042,23.4791667 177.125,23.3125 C177.348958,23.1458333 177.651042,23.0625 178.03125,23.0625 C178.71875,23.0625 179.416667,23.2708333 180.125,23.6875 L180.125,23.6875 L180.609375,22.25 C179.692708,21.8645833 178.809896,21.671875 177.960938,21.671875 C177.070312,21.671875 176.359375,21.875 175.828125,22.28125 C175.239583,22.7291667 174.945312,23.3463542 174.945312,24.1328125 C174.945312,24.7682292 175.151042,25.2682292 175.5625,25.6328125 C175.75,25.7994792 175.958333,25.9414062 176.1875,26.0585938 C176.416667,26.1757812 176.776042,26.3203125 177.265625,26.4921875 C177.973958,26.7473958 178.411458,26.9322917 178.578125,27.046875 C178.791667,27.203125 178.898438,27.4348958 178.898438,27.7421875 C178.898438,28.0651042 178.779948,28.3190104 178.542969,28.5039062 C178.30599,28.6888021 177.973958,28.78125 177.546875,28.78125 C177.182292,28.78125 176.845052,28.7330729 176.535156,28.6367188 C176.22526,28.5403646 175.846354,28.3645833 175.398438,28.109375 L175.398438,28.109375 L174.898438,29.5390625 C175.742188,29.9661458 176.635417,30.1796875 177.578125,30.1796875 Z M186.171875,30.1796875 C187.385417,30.1796875 188.341146,29.8177083 189.039062,29.09375 C189.794271,28.3177083 190.171875,27.2604167 190.171875,25.921875 C190.171875,24.6979167 189.851562,23.7057292 189.210938,22.9453125 C188.497396,22.0963542 187.486979,21.671875 186.179688,21.671875 C184.971354,21.671875 184.015625,22.03125 183.3125,22.75 C182.557292,23.5260417 182.179688,24.5677083 182.179688,25.875 C182.179688,27.1354167 182.5,28.1458333 183.140625,28.90625 C183.854167,29.7552083 184.864583,30.1796875 186.171875,30.1796875 Z M186.171875,28.7578125 C185.53125,28.7578125 185.028646,28.5052083 184.664062,28 C184.299479,27.4947917 184.117188,26.7942708 184.117188,25.8984375 C184.117188,25.2161458 184.239583,24.6380208 184.484375,24.1640625 C184.848958,23.4505208 185.411458,23.09375 186.171875,23.09375 C186.8125,23.09375 187.316406,23.3450521 187.683594,23.8476562 C188.050781,24.3502604 188.234375,25.0416667 188.234375,25.921875 C188.234375,26.8072917 188.052083,27.5013021 187.6875,28.0039062 C187.322917,28.5065104 186.817708,28.7578125 186.171875,28.7578125 Z M194.507812,30 L194.507812,23.265625 L196.375,23.265625 L196.375,21.84375 L194.507812,21.84375 L194.507812,21.4765625 C194.507812,20.7994792 194.592448,20.3177083 194.761719,20.03125 C194.93099,19.7447917 195.213542,19.6015625 195.609375,19.6015625 C195.90625,19.6015625 196.221354,19.6770833 196.554688,19.828125 L196.554688,19.828125 L196.703125,18.3359375 C196.177083,18.1901042 195.682292,18.1171875 195.21875,18.1171875 C194.213542,18.1171875 193.502604,18.4505208 193.085938,19.1171875 C192.789062,19.5963542 192.640625,20.3255208 192.640625,21.3046875 L192.640625,21.3046875 L192.640625,21.84375 L191.335938,21.84375 L191.335938,23.265625 L192.640625,23.265625 L192.640625,30 L194.507812,30 Z M200.90625,30.1796875 C201.442708,30.1796875 201.997396,30.0885417 202.570312,29.90625 L202.570312,29.90625 L202.40625,28.4765625 C202.046875,28.6119792 201.752604,28.6796875 201.523438,28.6796875 C201.065104,28.6796875 200.755208,28.5208333 200.59375,28.203125 C200.484375,27.9895833 200.429688,27.6067708 200.429688,27.0546875 L200.429688,27.0546875 L200.429688,23.265625 L202.289062,23.265625 L202.289062,21.84375 L200.429688,21.84375 L200.429688,19.7109375 L198.5625,20.0703125 L198.5625,21.84375 L197.25,21.84375 L197.25,23.265625 L198.5625,23.265625 L198.5625,27.15625 C198.5625,28.2083333 198.695312,28.9348958 198.960938,29.3359375 C199.335938,29.8984375 199.984375,30.1796875 200.90625,30.1796875 Z" id="SigninwithMicrosoft" fill="#4D4D4D" fill-rule="nonzero"></path>
                </g>
            </g>
        </g>
    </g>
</svg>