<?xml version="1.0" encoding="UTF-8"?>
<svg width="25px" height="25px" viewBox="0 0 25 25" version="1.1" xmlns="http://www.w3.org/2000/svg" xmlns:xlink="http://www.w3.org/1999/xlink">
    <title>ic_contact us</title>
    <g id="Page-1" stroke="none" stroke-width="1" fill="none" fill-rule="evenodd">
        <g id="01.01.Login" transform="translate(-975.000000, -23.000000)">
            <g id="ic_contact-us" transform="translate(975.000000, 23.000000)">
                <rect id="Null" x="0" y="0" width="25" height="25"></rect>
                <path d="M15.8875,15.1375 L21.9125,21.25 L3.0875,21.25 L9.1,15.1375 L11.2375,17.0875 C11.6,17.4125 12.05,17.575 12.5,17.575 C12.95,17.575 13.4,17.4125 13.7625,17.0875 L15.8875,15.1375 Z M12.925,16.0875 L25,5 L25,3.75 L0,3.75 L0,5 L12.0875,16.0875 C12.325,16.3 12.675,16.3 12.925,16.0875 Z M16.8625,14.25 L23.75,21.25 L25,21.25 L25,6.7625 L16.8625,14.25 Z M0,6.775 L0,21.25 L1.25,21.25 L8.1375,14.25 L0,6.775 Z" id="Color-&amp;-Shape" fill="#666666"></path>
            </g>
        </g>
    </g>
</svg>