<?xml version="1.0" encoding="UTF-8"?>
<svg width="50px" height="50px" viewBox="0 0 50 50" version="1.1" xmlns="http://www.w3.org/2000/svg" xmlns:xlink="http://www.w3.org/1999/xlink">
    <title>ic_Chat_Circle</title>
    <g id="Page-1" stroke="none" stroke-width="1" fill="none" fill-rule="evenodd">
        <g id="01.06.Contact-us" transform="translate(-334.000000, -199.000000)">
            <g id="Group" transform="translate(323.000000, 199.000000)">
                <g id="ic_Chat_Circle" transform="translate(11.000000, 0.000000)">
                    <circle id="Oval" fill="#F2F2F2" cx="25" cy="25" r="25"></circle>
                    <g id="ic_Chat" transform="translate(9.000000, 10.000000)" fill-rule="nonzero">
                        <rect id="null" x="0" y="0" width="30" height="30"></rect>
                        <path d="M13.125,3.75 L26.25,3.75 C27.28125,3.75 28.125,4.59375 28.125,5.625 L28.125,14.0625 C28.125,15.09375 27.28125,15.9375 26.25,15.9375 L25.3125,15.9375 L25.3125,20.625 L20.625,15.9375 L13.125,15.9375 C12.09375,15.9375 11.25,15.09375 11.25,14.0625 L11.25,5.625 C11.25,4.584375 12.084375,3.75 13.125,3.75 Z M9.375,14.0625 L9.375,13.125 L3.75,13.125 C2.71875,13.125 1.875,13.96875 1.875,15 L1.875,21.5625 C1.875,22.59375 2.71875,23.4375 3.75,23.4375 L4.6875,23.4375 L4.6875,28.125 L9.375,23.4375 L15,23.4375 C16.03125,23.4375 16.875,22.59375 16.875,21.5625 L16.875,17.8125 L13.125,17.8125 C11.053125,17.8125 9.375,16.125 9.375,14.0625 Z" id="Vector" fill="#EC6602"></path>
                    </g>
                </g>
            </g>
        </g>
    </g>
</svg>