<?xml version="1.0" encoding="UTF-8"?>
<svg width="50px" height="50px" viewBox="0 0 50 50" version="1.1" xmlns="http://www.w3.org/2000/svg" xmlns:xlink="http://www.w3.org/1999/xlink">
    <title>ic_Email_Circle</title>
    <g id="Page-1" stroke="none" stroke-width="1" fill="none" fill-rule="evenodd">
        <g id="01.06.Contact-us" transform="translate(-334.000000, -285.000000)">
            <g id="Group" transform="translate(323.000000, 199.000000)">
                <g id="ic_Email_Circle" transform="translate(11.000000, 86.000000)">
                    <circle id="Oval" fill="#F2F2F2" cx="25" cy="25" r="25"></circle>
                    <g id="ic_Email" transform="translate(11.000000, 10.000000)" fill-rule="nonzero">
                        <rect id="null" x="0" y="0" width="30" height="30"></rect>
                        <path d="M9.7875,16.35 L2.8125,23.4375 L1.875,24.375 L1.875,8.990625 L9.7875,16.35 Z M15.646875,18.16875 L28.125,6.5625 L28.125,5.625 L12.1875,5.625 L1.875,5.625 L1.875,6.5625 L14.353125,18.16875 C14.71875,18.50625 15.290625,18.50625 15.646875,18.16875 Z M20.2125,16.35 L27.1875,23.4375 L28.125,24.375 L28.125,8.990625 L20.2125,16.35 Z M16.865625,19.471875 C16.340625,19.959375 15.675,20.203125 15,20.203125 C14.325,20.203125 13.659375,19.959375 13.134375,19.471875 L11.08125,17.56875 L4.6875,24.375 L15,24.375 L25.3125,24.375 L18.909375,17.56875 L16.865625,19.471875 Z" id="Vector" fill="#EC6602"></path>
                    </g>
                </g>
            </g>
        </g>
    </g>
</svg>