<?xml version="1.0" encoding="UTF-8"?>
<svg width="25px" height="25px" viewBox="0 0 25 25" version="1.1" xmlns="http://www.w3.org/2000/svg" xmlns:xlink="http://www.w3.org/1999/xlink">
    <title>ic_Language</title>
    <g id="Page-1" stroke="none" stroke-width="1" fill="none" fill-rule="evenodd">
        <g id="01.01.Login" transform="translate(-1096.000000, -23.000000)">
            <g id="Menu-Stack" transform="translate(975.000000, 23.000000)">
                <g id="ic_Language" transform="translate(121.000000, 0.000000)">
                    <rect id="Null" x="0" y="0" width="25" height="25"></rect>
                    <path d="M7.6625,16.1875 L1.9,16.1875 C1.4875,15.0125 1.25,13.75 1.25,12.4375 C1.25,11.125 1.4875,9.8625 1.9,8.6875 L7.6625,8.6875 C7.5125,9.9125 7.4375,11.1875 7.4375,12.4375 C7.4375,13.6875 7.5125,14.9625 7.6625,16.1875 Z M2.4375,17.4375 C3.9125,20.4 6.6375,22.6125 9.925,23.375 C8.95,22 8.25,19.85 7.85,17.4375 L2.4375,17.4375 Z M15.075,23.375 C18.3625,22.6 21.0875,20.3875 22.5625,17.4375 L17.15,17.4375 C16.75,19.85 16.05,22 15.075,23.375 Z M9.925,1.5 C6.6375,2.2625 3.9,4.475 2.4375,7.4375 L7.85,7.4375 C8.25,5.025 8.95,2.875 9.925,1.5 Z M22.5625,7.4375 C21.0875,4.475 18.3625,2.2625 15.075,1.5 C16.05,2.875 16.75,5.025 17.15,7.4375 L22.5625,7.4375 Z M9.05,8.6875 C8.9,9.85 8.8125,11.1 8.8125,12.4375 C8.8125,13.775 8.9,15.025 9.05,16.1875 L15.95,16.1875 C16.1,15.025 16.1875,13.775 16.1875,12.4375 C16.1875,11.1 16.1,9.85 15.95,8.6875 L9.05,8.6875 Z M12.5,23.625 C13.75,23.625 15.0875,21.175 15.7625,17.4375 L9.2375,17.4375 C9.9125,21.175 11.25,23.625 12.5,23.625 Z M12.5,1.25 C11.25,1.25 9.9125,3.7 9.2375,7.4375 L15.75,7.4375 C15.0875,3.7 13.75,1.25 12.5,1.25 Z M17.5625,12.4375 C17.5625,13.6875 17.4875,14.9625 17.3375,16.1875 L23.1,16.1875 C23.5125,15.0125 23.75,13.75 23.75,12.4375 C23.75,11.125 23.5125,9.8625 23.1,8.6875 L17.3375,8.6875 C17.4875,9.9125 17.5625,11.1875 17.5625,12.4375 Z" id="Color-&amp;-Shape" fill="#666666"></path>
                </g>
            </g>
        </g>
    </g>
</svg>