<?xml version="1.0" encoding="UTF-8"?>
<svg width="208px" height="49px" viewBox="0 0 208 49" version="1.1" xmlns="http://www.w3.org/2000/svg" xmlns:xlink="http://www.w3.org/1999/xlink">
    <title>ic_Logo</title>
    <g id="Page-1" stroke="none" stroke-width="1" fill="none" fill-rule="evenodd">
        <g id="01.01.Login" transform="translate(-253.000000, -318.000000)">
            <g id="Group-2" transform="translate(220.000000, 275.000000)">
                <g id="ic_Logo" transform="translate(33.000000, 43.000000)">
                    <path d="M186.812303,37.8121565 C187.424857,37.8121565 188.03741,38.0404438 188.507748,38.4970184 C189.450281,39.4377829 189.450281,40.9419014 188.507748,41.8826659 C187.566144,42.795815 186.058462,42.795815 185.116858,41.8826659 C184.20128,40.9685963 184.20128,39.4644777 185.116858,38.4970184 C185.588124,38.0404438 186.199749,37.8121565 186.812303,37.8121565 M179.282258,30.9782665 C179.755384,30.9782665 180.223862,31.1586871 180.573362,31.5213693 C181.297458,32.2448927 181.297458,33.3706803 180.573362,34.0942037 C179.875292,34.8186476 178.695731,34.8186476 177.971635,34.0942037 C177.247538,33.3706803 177.247538,32.2448927 177.971635,31.5213693 C178.333218,31.1586871 178.809132,30.9782665 179.282258,30.9782665 M194.231734,29.6729788 C195.036699,29.6729788 195.840734,29.9776686 196.46816,30.5870484 C197.695127,31.8325027 197.723012,33.7821497 196.46816,35.0285246 C195.241193,36.2463636 193.25016,36.2463636 191.996238,35.0285246 C190.796227,33.7821497 190.796227,31.8325027 191.996238,30.5870484 C192.622734,29.9776686 193.427699,29.6729788 194.231734,29.6729788 M171.838659,23.906884 C172.203961,23.906884 172.570192,24.0412789 172.840682,24.3109893 C173.383522,24.8494895 173.383522,25.7377848 172.840682,26.3029799 C172.298772,26.8414801 171.377617,26.8414801 170.835707,26.3029799 C170.292867,25.7377848 170.292867,24.8494895 170.835707,24.3109893 C171.106197,24.0412789 171.472428,23.906884 171.838659,23.906884 M186.812303,22.9385041 C187.424857,22.9385041 188.03741,23.176917 188.507748,23.6528224 C189.450281,24.604633 189.450281,26.1271619 188.507748,27.079893 C187.566144,28.0317037 186.058462,28.0317037 185.116858,27.079893 C184.20128,26.1271619 184.20128,24.604633 185.116858,23.6528224 C185.588124,23.176917 186.199749,22.9385041 186.812303,22.9385041 M201.753413,21.3128778 C202.792616,21.3128778 203.83182,21.7105395 204.633067,22.5067834 C206.23556,24.0983508 206.23556,26.6343647 204.633067,28.225932 C203.029644,29.8174993 200.476252,29.8174993 198.873759,28.225932 C197.270336,26.6610595 197.270336,24.0983508 198.873759,22.5067834 C199.675005,21.7105395 200.714209,21.3128778 201.753413,21.3128778 M179.282258,16.0954089 C179.755384,16.0954089 180.223862,16.2758295 180.573362,16.6375912 C181.297458,17.3620351 181.297458,18.5145177 180.573362,19.2389615 C179.875292,19.93579 178.695731,19.93579 177.971635,19.2389615 C177.247538,18.5145177 177.247538,17.3620351 177.971635,16.6375912 C178.333218,16.2758295 178.809132,16.0954089 179.282258,16.0954089 M194.249395,14.7965648 C195.046923,14.7965648 195.84817,15.1086188 196.473737,15.7308857 C197.723012,16.9496452 197.723012,18.8992922 196.473737,20.1456671 C195.223532,21.3644265 193.294777,21.3644265 192.045502,20.1456671 C190.823183,18.8992922 190.796227,16.9496452 192.045502,15.7308857 C192.657127,15.1086188 193.450937,14.7965648 194.249395,14.7965648 M186.812303,8.06574777 C187.424857,8.06301069 188.03741,8.29405951 188.507748,8.76996484 C189.450281,9.6941601 189.450281,11.2719197 188.507748,12.196115 C187.566144,13.1488462 186.058462,13.1212308 185.116858,12.196115 C184.20128,11.2443043 184.20128,9.72177549 185.116858,8.76996484 C185.588124,8.30786721 186.199749,8.06945429 186.812303,8.06574777" id="Bubbles" fill="#EC6602"></path>
                    <path d="M40.8927602,34.9743064 C38.4016457,34.9743064 37.5362622,37.4587715 37.5362622,40.456883 C37.5362622,42.9137328 38.0614412,45.0741773 40.3099509,45.0741773 C41.9077964,45.0741773 42.7583075,43.9134101 42.7583075,42.8060327 L42.7583075,35.298327 C42.7583075,35.1096218 41.705161,34.9743064 40.8927602,34.9743064 L40.8927602,34.9743064 Z M136.250393,34.846355 C134.178492,34.846355 133.088165,36.903702 132.978481,38.987744 C134.968584,38.9334337 137.831507,38.4464822 137.831507,36.3624403 C137.831507,35.4143117 137.258923,34.846355 136.250393,34.846355 L136.250393,34.846355 Z M121.382715,34.846355 C119.283858,34.846355 118.192601,36.903702 118.083847,38.987744 C120.100907,38.9334337 122.936873,38.4464822 122.936873,36.3624403 C122.936873,35.4143117 122.336403,34.846355 121.382715,34.846355 L121.382715,34.846355 Z M25.6374723,34.846355 C23.5376859,34.846355 22.4473585,36.903702 22.3386047,38.987744 C24.3556638,38.9334337 27.1907008,38.4464822 27.1907008,36.3624403 C27.1907008,35.4143117 26.5911602,34.846355 25.6374723,34.846355 L25.6374723,34.846355 Z M90.1638449,32.0240615 L94.8114466,32.0240615 L94.8114466,47.6727861 L92.3305568,47.6727861 L90.1638449,47.6727861 L90.1638449,32.0240615 Z M152.134037,31.8684948 C153.027306,31.8684948 153.94846,32.0028897 154.679063,32.406995 L153.920575,36.0430222 C153.27084,35.7199221 152.310645,35.504522 151.525201,35.504522 C149.982197,35.504522 149.653147,36.5272121 148.723626,38.1169385 L148.723626,47.6727861 L145.005545,47.6727861 L145.005545,34.9660217 L144.634666,32.0240615 L148.072962,32.0240615 L148.479163,34.3695292 C149.209766,32.5920182 150.698857,31.8684948 152.134037,31.8684948 L152.134037,31.8684948 Z M136.467901,31.8684948 C139.576217,31.8684948 141.593276,33.4112749 141.593276,36.3348249 C141.593276,40.9097755 136.87689,41.8026733 133.115121,42.0189939 C133.333558,43.4807689 134.314202,45.0235491 136.659382,45.0235491 C138.294408,45.0235491 139.630129,44.320277 140.502949,43.7247049 L141.729915,46.5672497 C141.374839,46.8378806 139.22207,48.2720402 136.113753,48.2720402 C130.879624,48.2720402 128.807724,44.9968542 128.807724,40.4219035 C128.807724,35.9555734 131.452209,31.8684948 136.467901,31.8684948 L136.467901,31.8684948 Z M121.600223,31.8684948 C124.708539,31.8684948 126.698642,33.4112749 126.698642,36.3348249 C126.698642,40.9097755 122.009212,41.8026733 118.247443,42.0189939 C118.46588,43.4807689 119.447454,45.0235491 121.791704,45.0235491 C123.42766,45.0235491 124.735495,44.320277 125.608315,43.7247049 L126.862238,46.5672497 C126.480205,46.8378806 124.326506,48.2720402 121.21912,48.2720402 C116.011947,48.2720402 113.940046,44.9968542 113.940046,40.4219035 C113.940046,35.9555734 116.557575,31.8684948 121.600223,31.8684948 L121.600223,31.8684948 Z M106.566161,31.8684948 C109.588961,31.8684948 111.542813,33.5650006 111.542813,37.2010278 L111.542813,47.6727861 L106.895211,47.6727861 L106.895211,37.981623 C106.895211,36.3394275 106.600553,35.0737218 104.938571,35.0737218 C103.33143,35.0737218 102.247609,36.3661223 102.247609,37.8205332 L102.247609,47.6727861 L98.529528,47.6727861 L98.529528,35.1538064 L97.9931948,32.0240615 L101.561623,32.0240615 L101.89811,33.9930393 C102.933595,32.5920182 104.523075,31.8684948 106.566161,31.8684948 L106.566161,31.8684948 Z M41.6326584,31.8684948 C42.6885935,31.8684948 44.6173482,32.1115103 47.4059092,32.9758722 L47.4059092,44.6424566 L47.3687284,47.6727861 L43.739881,47.6727861 L43.5233028,46.1309264 L43.3875928,46.1152777 C42.4673676,47.5199809 40.9234344,48.1468504 39.2716767,48.1468504 C34.8573846,48.1468504 33.4510203,44.8284003 33.4510203,40.6962165 C33.4510203,35.3765706 36.2163433,31.8684948 41.6326584,31.8684948 L41.6326584,31.8684948 Z M25.8010679,31.8684948 C28.9084544,31.8684948 30.9255136,33.4112749 30.9255136,36.3348249 C30.9255136,40.9097755 26.2639691,41.8026733 22.4473585,42.0189939 C22.6657958,43.4807689 23.6473693,45.0235491 25.9916196,45.0235491 C27.6275754,45.0235491 28.9632961,44.320277 29.8351862,43.7247049 L31.0621531,46.5672497 C30.7080058,46.8378806 28.5543072,48.2720402 25.4459912,48.2720402 C20.2118621,48.2720402 18.1399613,44.9968542 18.1399613,40.4219035 C18.1399613,35.9555734 20.7844466,31.8684948 25.8010679,31.8684948 L25.8010679,31.8684948 Z M161.369751,31.8574486 C163.300364,31.7497486 165.454993,32.2891693 166.384513,33.1535312 L166.384513,33.1802261 L165.14918,36.096412 C163.952888,35.2596655 162.832816,34.8270243 161.772233,34.8546396 C160.793448,34.8813345 160.01544,35.3130552 160.043325,36.3394275 C160.124193,37.5268895 161.190353,37.8242153 162.577198,38.2025462 C164.833143,38.7686618 167.364227,39.4443185 167.554779,42.6292942 C167.745331,46.1125162 165.408517,47.9480195 161.87448,48.1376452 C159.155633,48.2720402 156.844846,47.4085988 155.947859,46.8415626 L157.225949,43.9529922 C158.340444,44.5200283 160.080506,45.1404542 161.46735,45.0594491 C162.609731,45.0327542 163.397964,44.5200283 163.343122,43.3583407 C163.262254,42.1708786 162.174715,41.9278631 160.814827,41.5771476 C158.477083,41.0368064 156.117031,40.281065 155.92648,37.0951688 C155.763813,33.8825777 158.188932,32.0461539 161.369751,31.8574486 L161.369751,31.8574486 Z M73.4324788,27.4214955 L78.0800805,27.4214955 L78.0800805,33.4922801 C79.0096008,32.4668284 80.2291315,31.9007128 81.7200821,31.9007128 C84.9194912,31.9007128 86.4457636,33.7086007 86.4457636,37.3252971 L86.4457636,47.6727861 L81.7981619,47.6727861 L81.7981619,37.9724179 C81.7981619,36.4342403 81.9041272,35.192468 80.2774666,35.192468 C78.7047182,35.192468 78.0800805,36.4342403 78.0800805,37.8647178 L78.0800805,47.6727861 L73.4324788,47.6727861 L73.4324788,27.4214955 Z M61.3487143,27.4214955 L65.996316,27.4214955 L65.996316,32.0240615 L69.7143974,32.0240615 L69.7143974,35.7061144 L65.996316,35.7061144 L65.996316,42.5998378 C65.996316,44.2751718 66.2528637,44.949908 67.3905966,44.949908 C67.9315774,44.949908 68.4799944,44.7612028 69.1836413,44.4905719 L70.0536723,47.2999782 C69.1604033,47.8946297 67.4333545,48.2720402 66.0799729,48.2720402 C61.6935664,48.2720402 61.3487143,45.787575 61.3487143,43.2211842 L61.3487143,35.7061144 L59.4896737,35.7061144 L59.4896737,32.0240615 L61.3487143,32.0240615 L61.3487143,27.4214955 Z M51.1239906,27.4214955 L54.842072,27.4214955 L54.842072,42.5924737 C54.842072,44.2696487 55.4304583,44.9453054 56.5384466,44.9453054 C57.0794274,44.9453054 57.7793562,44.7566002 58.4811441,44.4859693 L59.4264663,47.2990577 C58.5341267,47.8937092 57.0041363,48.2720402 55.6804993,48.2720402 C51.3024585,48.2720402 51.1239906,45.783893 51.1239906,43.2147406 L51.1239906,27.4214955 Z M0.000371808137,27.4214955 L4.64797352,27.4214955 L4.64797352,35.7061144 L10.2250956,35.7061144 L10.2250956,27.4214955 L14.8726973,27.4214955 L14.8726973,47.6727861 L10.2250956,47.6727861 L10.2250956,39.3881672 L4.64797352,39.3881672 L4.64797352,47.6727861 L0.000371808137,47.6727861 L0.000371808137,27.4214955 Z M92.2850103,25.3199638 C93.663489,25.3199638 94.6097407,26.3260848 94.6097407,27.522752 C94.6097407,28.8013448 93.663489,29.6979247 92.2850103,29.6979247 C90.8795756,29.6979247 89.96028,28.8013448 89.96028,27.522752 C89.96028,26.3260848 90.9065317,25.3199638 92.2850103,25.3199638 L92.2850103,25.3199638 Z" id="Healthineers" fill="#EC6602"></path>
                    <path d="M135.70997,0.726244275 L141.030544,0.726244275 L146.864214,12.5373492 L146.864214,0.726244275 L150.582295,0.726244275 L150.582295,18.2159952 L145.071169,18.2159952 L138.498531,6.36162613 L138.498531,18.2159952 L135.70997,18.2159952 L135.70997,0.726244275 Z M118.978604,0.726244275 L131.991888,0.726244275 L131.991888,3.4877839 L123.626205,3.4877839 L123.626205,8.09034994 L131.062368,8.09034994 L131.062368,10.8518896 L123.626205,10.8518896 L123.626205,15.4544556 L131.991888,15.4544556 L131.991888,18.2159952 L118.978604,18.2159952 L118.978604,0.726244275 Z M92.9520341,0.726244275 L99.2913629,0.726244275 L103.729822,12.0200208 L108.38579,0.726244275 L114.331002,0.726244275 L114.331002,18.2159952 L109.6834,18.2159952 L109.6834,5.80747718 L104.545941,18.2159952 L101.442273,18.2159952 L96.6701155,5.80747718 L96.6701155,18.2159952 L92.9520341,18.2159952 L92.9520341,0.726244275 Z M76.220668,0.726244275 L89.2339528,0.726244275 L89.2339528,3.4877839 L81.79779,3.4877839 L81.79779,8.09034994 L88.3044324,8.09034994 L88.3044324,10.8518896 L81.79779,10.8518896 L81.79779,15.4544556 L89.2339528,15.4544556 L89.2339528,18.2159952 L76.220668,18.2159952 L76.220668,0.726244275 Z M66.9254646,0.726244275 L72.5025866,0.726244275 L72.5025866,18.2159952 L69.6238621,18.2159952 L66.9254646,18.2159952 L66.9254646,0.726244275 Z M161.026386,0.316615897 C162.21989,0.316615897 163.894886,0.478626222 165.820852,0.881811007 L166.384141,0.962816169 L166.384141,4.30151757 C164.5251,3.6553173 163.054599,3.33221717 161.644517,3.33221717 C159.637682,3.33221717 158.59662,3.87071739 158.59662,4.94771784 C158.59662,5.35182314 158.753709,5.67492328 159.187795,5.97132853 C159.513127,6.18672862 160.391523,6.6175288 161.91036,7.31711884 C164.052904,8.23302948 165.509462,9.06701445 166.241924,9.79421988 C167.082211,10.6291254 167.512579,11.7061258 167.512579,13.0519161 C167.512579,14.9638221 166.669504,16.3906175 164.988002,17.4142282 C163.604875,18.2215183 161.922443,18.6256236 159.779899,18.6256236 C157.962687,18.6256236 156.159417,18.4102235 154.300377,17.9794233 L154.300377,14.506327 C156.159417,15.1258324 157.988713,15.448012 159.561462,15.448012 C161.67705,15.448012 162.734844,14.9104323 162.734844,13.8058164 C162.734844,13.3750163 162.586121,13.0519161 162.287745,12.7564314 C161.962413,12.4600261 161.141646,12.029226 159.840318,11.4907257 C157.507222,10.5481202 155.985597,9.71321472 155.253135,9.04031957 C154.358007,8.1787192 153.86815,7.02071359 153.86815,5.6482284 C153.86815,3.92502767 154.518814,2.57831685 155.874984,1.6900216 C157.176313,0.774110962 158.938683,0.316615897 161.026386,0.316615897 L161.026386,0.316615897 Z M57.9509457,0.316615897 C59.1165642,0.316615897 60.4188222,0.533857014 63.2073832,0.966498222 L63.2073832,4.34846375 C61.3483425,3.69950194 59.8759823,3.37456077 58.4659,3.37456077 C56.4860216,3.37456077 55.4170732,3.91582254 55.4170732,4.99834607 C55.4170732,5.4042924 55.588105,5.72923356 55.9952349,5.99894393 C56.320567,6.21618504 57.2194132,6.64882625 58.6834077,7.35209834 C60.8807938,8.29930643 62.306678,9.11119908 63.0112544,9.84208657 C63.8794264,10.6539792 64.2800497,11.7631976 64.2800497,13.116352 C64.2800497,15.0374631 63.4369747,16.4716227 61.7554724,17.4998359 C60.4262584,18.3384235 58.7038572,18.7443698 56.5882689,18.7443698 C54.7719861,18.6900595 52.9826595,18.4737389 51.1236188,18.0410977 L51.1236188,14.5505116 C52.9826595,15.1727786 54.8509953,15.4977197 56.3698316,15.4977197 C58.4584638,15.4977197 59.5088218,14.956458 59.5088218,13.8472395 C59.5088218,13.4136778 59.3554509,13.0887367 59.0031627,12.7914109 C58.6778306,12.4940851 57.8830907,12.0605234 56.6077888,11.5192616 C54.2756223,10.5729741 52.7530679,9.73346601 52.0206059,9.0568888 C51.0985217,8.13729611 50.6356206,7.02807769 50.6356206,5.67492328 C50.6356206,3.94251742 51.3773778,2.59028352 52.733548,1.69738571 C54.035806,0.776872501 55.8623135,0.316615897 57.9509457,0.316615897 L57.9509457,0.316615897 Z" id="Siemens" fill="#009999"></path>
                </g>
            </g>
        </g>
    </g>
</svg>