<?xml version="1.0" encoding="UTF-8"?>
<svg width="150px" height="150px" viewBox="0 0 150 150" version="1.1" xmlns="http://www.w3.org/2000/svg" xmlns:xlink="http://www.w3.org/1999/xlink">
    <title>ic_Notification_ Circle</title>
    <g id="Page-1" stroke="none" stroke-width="1" fill="none" fill-rule="evenodd">
        <g id="01.04.Notification_empty-status" transform="translate(-1133.000000, -158.000000)">
            <g id="Group-13" transform="translate(1026.000000, 158.000000)">
                <g id="ic_Notification_-Circle" transform="translate(107.000000, 0.000000)">
                    <g id="Group_12332">
                        <circle id="Ellipse_1204" fill="#EDEDED" cx="75" cy="75" r="75"></circle>
                        <circle id="Ellipse_1205" fill="#FFFFFF" fill-rule="nonzero" cx="122.815" cy="52.635" r="4.049"></circle>
                        <circle id="Ellipse_1206" fill="#FFFFFF" fill-rule="nonzero" cx="132.455" cy="41.452" r="5.591"></circle>
                        <circle id="Ellipse_1207" fill="#FFFFFF" fill-rule="nonzero" cx="118.766" cy="38.946" r="1.542"></circle>
                    </g>
                    <g id="Group_12344" transform="translate(37.999213, 37.990675)" fill-rule="nonzero">
                        <path d="M63.801787,53.8663248 L63.801787,53.8663248 C60.9044057,53.8663257 58.554995,51.5187053 58.552787,48.6213248 L58.552787,35.4403248 C58.552787,30.5531806 56.6113765,25.866201 53.1556437,22.4104682 C49.6999108,18.9547353 45.0129313,17.0133244 40.125787,17.0133244 L40.125787,17.0133244 C35.2379497,17.0122638 30.5499425,18.9532059 27.0933445,22.4090538 C23.6367465,25.8649016 21.6947869,30.5524874 21.694787,35.4403248 L21.694787,48.6213248 C21.694787,51.5202675 19.3447297,53.8703248 16.445787,53.8703248 L16.445787,53.8703248 C14.4774442,53.8703248 12.881787,55.465982 12.881787,57.4343248 L12.881787,58.1583248 C12.881787,60.1266677 14.4774442,61.7223248 16.445787,61.7223248 L63.797787,61.7223248 C65.7661299,61.7223248 67.3617893,60.1266677 67.3617893,58.1583248 L67.3617893,57.4343248 C67.3628485,56.4890931 66.9883743,55.582154 66.3207447,54.913024 C65.653115,54.2438941 64.7470188,53.8673851 63.801787,53.8663248 L63.801787,53.8663248 Z" id="Path_19601" fill="#EC6602"></path>
                        <g id="Group_12344-2" fill="#535C7D">
                            <path d="M62.519787,51.8943248 C60.3471363,51.8915701 58.5865417,50.1309755 58.583787,47.9583248 L58.583787,33.7343248 C58.5716742,24.0500313 52.1316861,15.5508965 42.811787,12.9193248 C45.5624195,9.7878399 45.3578657,5.04528131 42.3478183,2.16226342 C39.337771,-0.720754473 34.5908031,-0.720754473 31.5807557,2.16226342 C28.5707084,5.04528131 28.3661545,9.7878399 31.116787,12.9193248 C21.7972844,15.5512675 15.3577731,24.0503118 15.345787,33.7343248 L15.345787,47.9573248 C15.3430323,50.1299755 13.5824377,51.8905701 11.409787,51.8933248 C8.33161804,51.8966317 5.8370939,54.3911559 5.833787,57.4693248 L5.833787,58.2513248 C5.8370939,61.3294938 8.33161804,63.8240179 11.409787,63.8273248 L28.316787,63.8273248 L28.316787,65.6273248 C28.3167871,70.4045878 32.189524,74.2773246 36.966787,74.2773246 C41.74405,74.2773246 45.6167869,70.4045878 45.616787,65.6273248 L45.616787,63.8273248 L62.519787,63.8273248 C65.597956,63.8240179 68.0924801,61.3294938 68.095787,58.2513248 L68.095787,57.4693248 C68.0919291,54.3915464 65.5975661,51.8976307 62.519787,51.8943248 L62.519787,51.8943248 Z M32.6407869,7.79232483 C32.640235,5.40437588 34.5755049,3.46806169 36.9634538,3.46732529 C39.3514027,3.46658931 41.2878662,5.40170987 41.2887869,7.7896587 C41.2897069,10.1776075 39.3547358,12.1142203 36.966787,12.1153248 C34.5794588,12.1136727 32.6440953,10.1796513 32.6407869,7.79232483 Z M42.152787,65.6233248 C42.152787,68.4888543 39.8298164,70.8118248 36.964287,70.8118248 C34.0987576,70.8118248 31.775787,68.4888543 31.775787,65.6233248 L31.775787,63.8233248 L42.152787,63.8233248 L42.152787,65.6233248 Z M64.635787,58.2523248 C64.6346844,59.4210546 63.6875168,60.3682223 62.518787,60.3693248 L11.409787,60.3693248 C10.2410572,60.3682223 9.29388958,59.4210546 9.292787,58.2523248 L9.292787,57.4693248 C9.29388958,56.300595 10.2410572,55.3534274 11.409787,55.3523248 C15.4966942,55.3523248 18.809787,52.039232 18.809787,47.9523248 L18.809787,33.7343248 C18.7614043,27.214454 22.211965,21.1690356 27.8504131,17.8950534 C33.4888613,14.6210712 40.4497127,14.6210712 46.0881609,17.8950534 C51.726609,21.1690356 55.1771697,27.214454 55.128787,33.7343248 L55.128787,47.9573248 C55.1292702,48.2968817 55.1529923,48.6360075 55.199787,48.9723248 L46.148787,48.9723248 C45.1936105,48.9723248 44.419287,49.7466484 44.419287,50.7018248 C44.419287,51.6570013 45.1936105,52.4313248 46.148787,52.4313248 L56.636787,52.4313248 C58.0332543,54.2712153 60.2099563,55.3519814 62.519787,55.3523248 C63.6885168,55.3534274 64.6356844,56.300595 64.636787,57.4693248 L64.636787,58.2513248 L64.635787,58.2523248 Z" id="Path_19602"></path>
                            <path d="M38.452787,48.9723248 L38.279787,48.9723248 C37.3246105,48.9723248 36.550287,49.7466484 36.550287,50.7018248 C36.550287,51.6570013 37.3246105,52.4313248 38.279787,52.4313248 L38.452787,52.4313248 C39.4079635,52.4313248 40.182287,51.6570013 40.182287,50.7018248 C40.182287,49.7466484 39.4079635,48.9723248 38.452787,48.9723248 L38.452787,48.9723248 Z" id="Path_19603"></path>
                            <path d="M73.917787,29.5983248 C72.9939573,21.4959627 69.4431386,13.9187753 63.807787,8.02432483 C63.3803187,7.57774279 62.7470731,7.39313559 62.1465876,7.54004298 C61.546102,7.68695037 61.0696047,8.14305361 60.8965875,8.73654303 C60.7235703,9.33003244 60.8803187,9.97074285 61.307787,10.4173248 C66.4186263,15.762464 69.6392824,22.6336653 70.477787,29.9813248 C70.5343317,30.6053231 70.9238474,31.1499797 71.4960723,31.4051851 C72.0682972,31.6603904 72.7337872,31.5862535 73.2358194,31.2113738 C73.7378516,30.8364941 73.9979536,30.2194688 73.915787,29.5983248 L73.917787,29.5983248 Z" id="Path_19604"></path>
                            <path d="M63.603787,30.7473248 C63.6722033,31.3614644 64.0630622,31.8924531 64.6291308,32.1402726 C65.1951995,32.3880921 65.8504786,32.3150927 66.3481309,31.9487726 C66.8457832,31.5824525 67.1102034,30.9784644 67.041787,30.3643248 C66.2888224,23.771307 63.3982984,17.6060264 58.811787,12.8103248 C58.3843187,12.3637428 57.7510731,12.1791356 57.1505876,12.326043 C56.5501021,12.4729504 56.0736047,12.9290536 55.9005875,13.522543 C55.7275703,14.1160324 55.8843187,14.7567428 56.311787,15.2033248 C60.3745167,19.4494406 62.9355942,24.9087642 63.603787,30.7473248 L63.603787,30.7473248 Z" id="Path_19605"></path>
                            <path d="M12.566787,7.97332483 C11.8768279,7.31319187 10.7824921,7.33691367 10.121787,8.02632483 C4.48645092,13.9204998 0.935319293,21.497254 0.0107870034,29.5993248 C-0.0949755262,30.5487023 0.588909518,31.4040623 1.538287,31.5098248 C2.48766449,31.6155874 3.34302447,30.9317023 3.448787,29.9823248 C4.28729163,22.6346653 7.50794771,15.763464 12.618787,10.4183248 C12.9361847,10.0872354 13.1090261,9.64360108 13.0992737,9.18505292 C13.0895213,8.72650476 12.8979745,8.29062024 12.566787,7.97332483 Z" id="Path_19606"></path>
                            <path d="M8.414787,32.2753248 C8.87034405,32.325835 9.32729485,32.1931785 9.68498534,31.906576 C10.0426758,31.6199734 10.2717637,31.2029356 10.321787,30.7473248 C10.9896315,24.9088666 13.5503611,19.4495357 17.612787,15.2033248 C18.2735957,14.5129689 18.2496429,13.4176335 17.559287,12.7568248 C16.8689311,12.0960161 15.7735957,12.1199689 15.112787,12.8103248 C10.5262142,17.6059843 7.63567989,23.7712867 6.882787,30.3643248 C6.83201009,30.8209934 6.96498869,31.2791025 7.25239122,31.6376052 C7.53979376,31.996108 7.95800806,32.2255509 8.414787,32.2753248 L8.414787,32.2753248 Z" id="Path_19607"></path>
                        </g>
                    </g>
                </g>
            </g>
        </g>
    </g>
</svg>