<?xml version="1.0" encoding="UTF-8"?>
<svg width="150px" height="150px" viewBox="0 0 150 150" version="1.1" xmlns="http://www.w3.org/2000/svg" xmlns:xlink="http://www.w3.org/1999/xlink">
    <title>ic_no data_ Circle</title>
    <g id="Page-1" stroke="none" stroke-width="1" fill="none" fill-rule="evenodd">
        <g id="01.02.Home-Empty" transform="translate(-645.000000, -245.000000)">
            <g id="ic_no-data_-Circle" transform="translate(645.000000, 245.000000)">
                <g id="Group_12290">
                    <circle id="Ellipse_1204" fill="#EDEDED" cx="75" cy="75" r="75"></circle>
                    <circle id="Ellipse_1205" fill="#FFFFFF" fill-rule="nonzero" cx="123" cy="52" r="4"></circle>
                    <circle id="Ellipse_1206" fill="#FFFFFF" fill-rule="nonzero" cx="132.5" cy="41.5" r="5.5"></circle>
                    <circle id="Ellipse_1207" fill="#FFFFFF" fill-rule="nonzero" cx="119.5" cy="38.5" r="1.5"></circle>
                </g>
                <g id="ic_no-data" transform="translate(44.000000, 31.000000)">
                    <polygon id="Path_19608" fill="#EC6602" points="6 79 48.1608254 79 65 62.2981922 65 -7.10542736e-14 6 -7.10542736e-14"></polygon>
                    <polygon id="Path_19609" fill="#EC6602" points="44 85 44 68 61 68"></polygon>
                    <path d="M1.61282395,68 C2.50356203,68 3.22564791,67.2760286 3.22564791,66.3829646 L3.22564791,6.23407084 L58.7743521,6.23407084 L58.7743521,9.46814169 C58.7743521,10.3612057 59.496438,11.0851771 60.387176,11.0851771 C61.2779141,11.0851771 62,10.3612057 62,9.46814169 L62,4.61703542 C62,3.72397142 61.2779141,3 60.387176,3 L1.61282395,3 C0.72208588,3 -3.19744231e-14,3.72397142 -3.19744231e-14,4.61703542 L-3.19744231e-14,66.3829646 C-3.19744231e-14,67.2760286 0.72208588,68 1.61282395,68 Z" id="Path_19610" fill="#666666"></path>
                    <path d="M60.3930548,21 C59.5022448,21 58.7801006,21.7239602 58.7801006,22.6170104 L58.7801006,65.9466588 L43.6159253,65.9466588 C43.1881433,65.9466588 42.7778821,66.1170219 42.4753945,66.4202702 C42.1729069,66.7235185 42.0029711,67.1348114 42.0029711,67.5636693 L42.0029711,82.7659792 L3.22590838,82.7659792 L3.22590838,79.5319583 C3.22590838,78.6389081 2.50376419,77.9149479 1.61295419,77.9149479 C0.722144189,77.9149479 -3.19744231e-14,78.6389081 -3.19744231e-14,79.5319583 L-3.19744231e-14,84.3829896 C-3.19744231e-14,85.2760398 0.722144189,86 1.61295419,86 L43.6409868,86 C43.6850949,86 43.729203,86 43.7733112,85.9939701 C43.8003775,85.9939701 43.8264414,85.9859303 43.8535078,85.9819104 C43.8805741,85.9778905 43.9046331,85.9758805 43.9286921,85.9708556 C43.9527511,85.9658307 43.9818223,85.9577909 44.0088887,85.951761 L44.0810656,85.9336714 C44.1061271,85.9256316 44.130186,85.9155818 44.1552475,85.907542 C44.1803089,85.8995021 44.2053704,85.8914623 44.2304318,85.8814125 C44.2554932,85.8713628 44.2735375,85.860308 44.2955915,85.8502582 C44.3176456,85.8402084 44.3487218,85.8271437 44.3737832,85.814079 C44.3988447,85.8010143 44.4138815,85.7909645 44.4329282,85.7789047 C44.4519749,85.766845 44.485056,85.7497604 44.509115,85.7326757 C44.533174,85.7155911 44.5542256,85.6995114 44.5762797,85.6834318 C44.5983337,85.6673521 44.6173804,85.6542874 44.6374296,85.6382077 C44.6792513,85.6047262 44.7190834,85.5688206 44.756722,85.530675 L61.5338515,68.7113547 C61.5843273,68.6604004 61.6312209,68.6060013 61.6741955,68.5485482 C61.6852226,68.5344785 61.6962496,68.5204088 61.7062742,68.5053341 C61.7470408,68.4484326 61.7842048,68.3890221 61.817547,68.3274529 L61.8225593,68.3163982 C61.8526629,68.2577991 61.8791117,68.1973843 61.9017534,68.135502 C61.9077681,68.1194224 61.9147853,68.1023377 61.9197976,68.0852531 C61.9423151,68.0194654 61.9607291,67.9523372 61.9749328,67.8842574 C61.9873595,67.8178327 61.9957289,67.7507092 62,67.6832617 C62,67.6651721 62,67.6470825 62,67.6279879 C62,67.6088933 62,67.5918087 62,67.573719 L62,22.6200254 C62.0016592,21.7281484 61.2826899,21.0033243 60.3930548,21 Z M45,80 L45,69 L56,69 L45,80 Z" id="Path_19611" fill="#666666"></path>
                    <path d="M1.5,74 C2.32782534,74 2.99914436,73.329368 3,72.501549 C3.00085401,71.67373 2.33092144,71.0017169 1.50310208,71 C0.67528272,70.9982896 0.00257365604,71.6675233 -5.63993297e-14,72.4953388 C-0.00102954417,73.3249473 0.670394811,73.9984567 1.5,74 L1.5,74 Z" id="Path_19615" fill="#666666"></path>
                    <path d="M60.5,15 C59.6715729,15 59,15.6715729 59,16.5 C59,17.3284271 59.6715729,18 60.5,18 C61.3284271,18 62,17.3284271 62,16.5 C61.9984609,15.6722112 61.3277888,15.0015391 60.5,15 L60.5,15 Z" id="Path_19616" fill="#666666"></path>
                </g>
            </g>
        </g>
    </g>
</svg>