<?xml version="1.0" encoding="UTF-8"?>
<svg width="25px" height="25px" viewBox="0 0 25 25" version="1.1" xmlns="http://www.w3.org/2000/svg" xmlns:xlink="http://www.w3.org/1999/xlink">
    <title>ic_Notification_Active</title>
    <g id="Page-1" stroke="none" stroke-width="1" fill="none" fill-rule="evenodd">
        <g id="01.04.Notification_empty-status" transform="translate(-1191.000000, -23.000000)" fill-rule="nonzero">
            <g id="Menu-Stack" transform="translate(975.000000, 15.000000)">
                <g id="Icon-Stack" transform="translate(0.000000, 8.000000)">
                    <g id="ic_Notification_Active" transform="translate(216.000000, 0.000000)">
                        <rect id="null" x="0" y="0" width="25" height="25"></rect>
                        <path d="M9.94320313,20.9134375 L15.0567969,20.9134375 C15.0567969,22.3100781 13.9147656,23.4375 12.5,23.4375 C11.0852344,23.4375 9.94320313,22.3100781 9.94320313,20.9134375 Z M19.3182031,14.1826563 L19.3182031,9.9759375 C19.3182031,6.83774219 17.1449219,4.21273437 14.2045312,3.4639375 L14.2045312,3.24519531 C14.2045312,2.31971094 13.4375,1.5625 12.5,1.5625 C11.5625,1.5625 10.7954687,2.31971094 10.7954687,3.24519531 L10.7954687,3.4639375 C7.85507813,4.21273437 5.68182031,6.83774219 5.68182031,9.9759375 L5.68182031,14.1826563 L3.125,16.7067188 L3.125,19.2307812 L21.875,19.2307812 L21.875,16.7067188 L19.3182031,14.1826563 Z" id="Vector" fill="#EC6602"></path>
                    </g>
                </g>
            </g>
        </g>
    </g>
</svg>