<?xml version="1.0" encoding="UTF-8"?>
<svg width="50px" height="50px" viewBox="0 0 50 50" version="1.1" xmlns="http://www.w3.org/2000/svg" xmlns:xlink="http://www.w3.org/1999/xlink">
    <title>ic_Support_Circle</title>
    <g id="Page-1" stroke="none" stroke-width="1" fill="none" fill-rule="evenodd">
        <g id="01.06.Contact-us" transform="translate(-334.000000, -371.000000)">
            <g id="Group" transform="translate(323.000000, 199.000000)">
                <g transform="translate(11.000000, 172.000000)" id="ic_Support_Circle">
                    <circle id="Oval" fill="#F2F2F2" cx="25" cy="25" r="25"></circle>
                    <g id="ic_Support" transform="translate(10.000000, 9.000000)" fill-rule="nonzero">
                        <rect id="null" x="0" y="0" width="30" height="30"></rect>
                        <path d="M20.625,19.6875 C19.59375,19.6875 18.75,18.84375 18.75,17.8125 L18.75,15 C18.75,13.96875 19.59375,13.125 20.625,13.125 L22.5,13.125 L22.5,19.6875 L20.625,19.6875 Z M7.5,13.125 L5.625,13.125 L5.625,19.6875 L7.5,19.6875 C8.53125,19.6875 9.375,18.84375 9.375,17.8125 L9.375,15 C9.375,13.96875 8.53125,13.125 7.5,13.125 Z M26.25,15 L25.3125,15 L25.3125,13.125 C25.3125,6.91875 20.26875,1.875 14.0625,1.875 C7.85625,1.875 2.8125,6.91875 2.8125,13.125 L2.8125,16.875 C2.8125,17.390625 3.234375,17.8125 3.75,17.8125 C4.265625,17.8125 4.6875,17.390625 4.6875,16.875 L4.6875,13.125 C4.6875,7.959375 8.896875,3.75 14.0625,3.75 C19.228125,3.75 23.4375,7.959375 23.4375,13.125 L23.4375,19.6875 L25.3125,19.6875 C25.3125,23.30625 22.36875,26.25 18.75,26.25 L16.875,26.25 L16.875,25.3125 L12.1875,25.3125 L12.1875,28.125 L18.75,28.125 C23.4,28.125 27.1875,24.3375 27.1875,19.6875 L27.1875,15.9375 C27.1875,15.421875 26.765625,15 26.25,15 Z" id="Vector" fill="#EC6602"></path>
                    </g>
                </g>
            </g>
        </g>
    </g>
</svg>